<?xml version="1.0" encoding="UTF-8" standalone="no"?>
<!-- Created with Inkscape (http://www.inkscape.org/) -->
<svg
   xmlns:dc="http://purl.org/dc/elements/1.1/"
   xmlns:cc="http://creativecommons.org/ns#"
   xmlns:rdf="http://www.w3.org/1999/02/22-rdf-syntax-ns#"
   xmlns:svg="http://www.w3.org/2000/svg"
   xmlns="http://www.w3.org/2000/svg"
   xmlns:sodipodi="http://sodipodi.sourceforge.net/DTD/sodipodi-0.dtd"
   xmlns:inkscape="http://www.inkscape.org/namespaces/inkscape"
   id="svg2440"
   sodipodi:version="0.32"
   inkscape:version="0.46"
   width="100"
   height="500"
   version="1.0"
   sodipodi:docname="Oriflamme.svg"
   inkscape:output_extension="org.inkscape.output.svg.inkscape">
  <metadata
     id="metadata2445">
    <rdf:RDF>
      <cc:Work
         rdf:about="">
        <dc:format>image/svg+xml</dc:format>
        <dc:type
           rdf:resource="http://purl.org/dc/dcmitype/StillImage" />
      </cc:Work>
    </rdf:RDF>
  </metadata>
  <defs
     id="defs2443" />
  <sodipodi:namedview
     inkscape:window-height="750"
     inkscape:window-width="1280"
     inkscape:pageshadow="2"
     inkscape:pageopacity="0.0"
     guidetolerance="10.0"
     gridtolerance="10.0"
     objecttolerance="10.0"
     borderopacity="1.0"
     bordercolor="#666666"
     pagecolor="#ffffff"
     id="base"
     showgrid="false"
     inkscape:zoom="1.13"
     inkscape:cx="50.480307"
     inkscape:cy="369.95489"
     inkscape:window-x="-8"
     inkscape:window-y="-8"
     inkscape:current-layer="svg2440" />
  <path
     sodipodi:nodetypes="cccccccc"
     id="path3797"
     d="M 92,500 L 100,5.6843419e-14 L 0.96061488,5.6843419e-14 L 8,500 L 33,300 L 50,500 L 67,300 L 92,500 z"
     style="fill:#306111;fill-opacity:1;" />
  <path
     style="fill:#ec0000;fill-opacity:1;"
     d="M 88,428 L 96,4 L 4.9606149,4 L 12,428 L 35,262 L 50,432 L 67,262 L 88,428 z"
     id="path2388"
     sodipodi:nodetypes="cccccccc" />
  <path
     style="fill:#ffe500;fill-opacity:1"
     d="M 50.3125 9.28125 C 49.21601 10.93795 47.314968 13.31085 48.6875 15.34375 C 49.469603 17.78655 48.614269 19.1889 47.21875 20.5625 C 46.626158 22.022345 46.625494 23.760792 47.3125 25.1875 C 48.283552 26.396437 49.40625 27.898082 49.40625 28.46875 C 49.406249 29.406577 50.612039 27.802634 50.28125 26.375 C 50.235093 26.289146 50.213504 26.2098 50.15625 26.125 C 49.374134 23.682199 50.229496 22.27555 51.625 20.90625 C 52.376443 19.055151 52.276442 16.7343 50.78125 15.1875 C 49.73077 13.6998 49.963616 11.54235 50.3125 9.28125 z M 34.40625 9.78125 C 33.63566 11.61975 32.172049 14.3622 34.25 15.5625 C 35.791203 17.3417 35.212075 18.87785 34.03125 20.59375 C 33.70153 22.46605 34.441789 24.3896 36.53125 25.125 C 38.110793 25.987101 38.426234 27.9334 38.65625 30 C 39.42686 28.161601 40.894278 25.3878 38.8125 24.1875 C 37.275125 22.408199 37.846583 20.9034 39.03125 19.1875 C 39.364801 17.3153 38.620695 15.3562 36.53125 14.625 C 34.959375 13.7586 34.636285 11.84795 34.40625 9.78125 z M 67.28125 11.21875 C 65.674885 12.07245 63.050731 13.1486 63.875 15.3125 C 63.970847 17.5567 62.707565 18.3096 60.875 18.8125 C 59.56766 19.962099 58.969838 21.82205 60.0625 23.65625 C 60.714258 25.26655 59.824621 26.8602 58.8125 28.5 C 60.418876 27.646299 63.070446 26.57005 62.25 24.40625 C 62.150311 22.15775 63.417419 21.40915 65.25 20.90625 C 66.55734 19.75665 67.155161 17.8967 66.0625 16.0625 C 65.414586 14.456501 66.265283 12.85855 67.28125 11.21875 z M 81 16.40625 C 79.911182 18.265849 78.800753 19.9653 76.9375 20.0625 C 74.637198 19.804701 73.096563 21.3143 72.625 23.25 C 73.031385 25.4266 72.934711 27.17155 70.71875 28.15625 C 68.226757 28.342249 68.479668 31.6452 68.4375 33.75 C 69.526322 31.890399 70.636763 30.1639 72.5 30.0625 C 74.80032 30.3203 76.313532 28.8149 76.78125 26.875 C 76.3787 24.694199 76.475379 22.989 78.6875 22 C 81.183332 21.814001 80.957835 18.51095 81 16.40625 z M 17 17.78125 C 17.038341 19.79295 16.814344 22.9432 19.1875 23.125 C 21.299937 24.0632 21.387226 25.71035 21 27.78125 C 21.448556 29.623951 22.90079 31.0577 25.09375 30.8125 C 26.872653 30.905499 27.92978 32.51045 28.96875 34.28125 C 28.930424 32.27795 29.154404 29.14625 26.78125 28.96875 C 24.672622 28.03045 24.581523 26.3876 24.96875 24.3125 C 24.52018 22.465601 23.06796 21.03195 20.875 21.28125 C 19.099937 21.18835 18.038983 19.56055 17 17.78125 z M 49.75 30.625 C 48.340344 33.293556 45.772465 37.146906 48.34375 39.71875 C 49.774062 42.467904 49.095348 44.502608 47.71875 46.4375 C 47.226841 43.652004 45.602712 40.925174 42.53125 40.1875 C 39.959976 39.131346 38.604585 36.190699 37.34375 33.0625 C 37.116393 36.021304 36.354263 40.508532 39.78125 42 C 42.178897 44.007468 42.423478 46.05602 41.96875 48.28125 C 40.513645 45.874605 38.013109 43.911346 34.9375 44.125 C 32.13059 43.895228 29.883912 41.529468 27.59375 38.9375 C 28.416399 41.807599 29.198665 46.296535 32.96875 46.6875 C 35.734316 47.788001 36.75113 49.491536 37.15625 51.53125 C 35.035567 49.676953 32.140052 48.485185 29.3125 49.46875 C 26.546934 49.980664 23.640922 48.328135 20.65625 46.4375 C 22.318079 48.977106 24.512975 53.014968 28.25 52.40625 C 31.4124 52.76507 32.862196 54.296917 33.875 56.3125 C 31.24585 55.02658 28.053423 54.626517 25.59375 56.34375 C 23.101042 57.549079 19.783133 56.688173 16.34375 55.65625 C 18.712468 57.659618 22.012337 61.001553 25.40625 59.4375 C 28.17595 59.018307 29.96584 59.830078 31.4375 61.15625 C 28.758743 60.837774 25.978438 61.396702 24.3125 63.46875 C 23.552898 64.14748 22.558145 64.546326 21.46875 64.8125 L 21.875 64.8125 C 20.230385 65.172332 18.308532 65.248402 16.34375 65.28125 C 19.291204 66.458339 23.627301 68.663617 26.28125 66.15625 C 29.356859 64.616326 31.620219 65.294726 33.90625 66.625 C 33.90625 66.64522 33.964626 66.64013 33.96875 66.65625 C 30.748452 67.067439 27.44813 68.690378 26.6875 71.75 C 25.620966 74.160646 22.508823 75.496318 19.15625 76.75 C 22.364131 76.870855 27.237004 77.435558 28.75 74.21875 C 31.073254 71.711387 33.561168 71.659377 36.28125 72.1875 C 33.590099 73.566133 31.350334 75.936322 31.65625 78.875 C 31.466092 81.475072 28.940657 83.643736 26.1875 85.8125 C 29.275518 84.998237 34.098531 84.14718 34.4375 80.65625 C 35.706605 77.790155 37.809676 76.86985 40.34375 76.53125 C 40.529776 76.672311 40.743201 76.831688 40.9375 76.96875 C 38.911898 79.157647 37.682294 82.167082 39.125 84.84375 C 39.95179 87.334987 38.482083 90.19033 36.75 93.125 C 39.31302 91.343193 43.470964 88.932582 42.4375 85.5625 C 42.503629 82.571459 43.97721 81.047001 46.09375 79.90625 C 45.333124 82.719976 45.762408 85.956082 48.375 87.75 C 50.334461 89.628429 50.353346 92.779142 50.25 96.125 C 51.659656 93.456442 54.227535 89.571845 51.65625 87 C 50.225938 84.250844 50.904652 82.247392 52.28125 80.3125 C 52.773159 83.097999 54.397288 85.793576 57.46875 86.53125 C 60.040024 87.587403 61.395415 90.559302 62.65625 93.6875 C 62.883607 90.728697 63.645737 86.241468 60.21875 84.75 C 57.821103 82.742531 57.576522 80.69398 58.03125 78.46875 C 59.486355 80.875394 61.986891 82.838654 65.0625 82.625 C 67.86941 82.854771 70.116088 85.189282 72.40625 87.78125 C 71.583601 84.91115 70.801335 80.422215 67.03125 80.03125 C 64.265684 78.930748 63.24887 77.258464 62.84375 75.21875 C 64.964433 77.07305 67.859948 78.233564 70.6875 77.25 C 73.453064 76.738085 76.359079 78.421866 79.34375 80.3125 C 77.681923 77.772896 75.487025 73.703782 71.75 74.3125 C 68.587602 73.953675 67.137804 72.453083 66.125 70.4375 C 68.754146 71.723423 71.946577 72.092233 74.40625 70.375 C 76.898957 69.169673 80.216867 70.030576 83.65625 71.0625 C 81.287534 69.05913 77.987663 65.748448 74.59375 67.3125 C 71.824052 67.731696 70.03416 66.919922 68.5625 65.59375 C 71.241261 65.912224 74.021562 65.353299 75.6875 63.28125 L 78.125 61.90625 C 79.769617 61.546413 81.691468 61.470348 83.65625 61.4375 C 80.708798 60.260413 76.372699 58.086383 73.71875 60.59375 C 70.643143 62.133673 68.379781 61.455274 66.09375 60.125 C 66.09375 60.104776 66.035374 60.07862 66.03125 60.0625 C 69.251548 59.651313 72.55187 58.059622 73.3125 55 C 74.37903 52.589353 77.491177 51.222432 80.84375 49.96875 C 77.635865 49.847898 72.762996 49.283192 71.25 52.5 C 68.926744 55.007365 66.438832 55.090622 63.71875 54.5625 C 66.409901 53.183862 68.649666 50.782428 68.34375 47.84375 C 68.533912 45.243677 71.059343 43.075014 73.8125 40.90625 C 70.724482 41.720508 65.901469 42.60282 65.5625 46.09375 C 64.293398 48.959844 62.190324 49.8489 59.65625 50.1875 C 59.470224 50.046435 59.256799 49.918312 59.0625 49.78125 C 61.088102 47.592356 62.317706 44.582918 60.875 41.90625 C 60.04821 39.415012 61.517917 36.52842 63.25 33.59375 C 60.68698 35.375556 56.529036 37.817418 57.5625 41.1875 C 57.496371 44.178544 56.02279 45.671749 53.90625 46.8125 C 54.666876 43.998769 54.237592 40.793918 51.625 39 C 49.665539 37.12157 49.646654 33.970857 49.75 30.625 z M 88.375 34.34375 C 87.194176 35.662351 86.025882 36.83885 84.5 36.59375 C 82.686595 35.985151 81.221351 36.92275 80.53125 38.40625 C 80.508255 40.23625 80.138936 41.62125 78.1875 42.03125 C 76.144064 41.748048 75.809387 44.46155 75.4375 46.15625 C 76.61449 44.841848 77.790464 43.66115 79.3125 43.90625 C 81.133572 44.51905 82.622401 43.5502 83.3125 42.0625 C 83.335501 40.228302 83.677394 38.87455 85.625 38.46875 C 87.668436 38.751951 87.999283 36.04275 88.375 34.34375 z M 11.9375 34.5 C 12.309389 36.198999 12.644064 38.9124 14.6875 38.625 C 16.642758 39.039199 16.976995 40.4158 17 42.25 C 17.686258 43.737701 19.178913 44.70655 21 44.09375 C 21.352086 44.037049 21.680302 44.04536 22 44.125 C 22.031039 44.132732 22.062973 44.147397 22.09375 44.15625 C 22.716621 44.335414 23.294969 44.738509 23.84375 45.25 L 24.78125 45.84375 C 24.438673 44.159555 23.994903 41.960075 22.125 42.21875 C 20.173566 41.80875 19.835503 40.43225 19.8125 38.59375 C 19.118591 37.110349 17.629744 36.1414 15.8125 36.75 C 14.282808 36.999299 13.118323 35.8186 11.9375 34.5 z M 75.5625 43.90625 L 75.5625 43.9375 C 75.583534 43.926468 75.603943 43.917278 75.625 43.90625 C 75.605942 43.907008 75.581687 43.90552 75.5625 43.90625 z M 77.3125 74.96875 C 78.803884 75.797148 80.181212 76.6382 80.46875 78.0625 C 80.541606 79.824897 81.836453 80.99295 83.3125 81.34375 C 84.861373 81.022552 86.147361 81.09075 87.125 82.78125 C 87.550549 84.691552 89.947274 84.4789 91.5 84.5 C 90.004794 83.671699 88.600034 82.83055 88.3125 81.40625 C 88.239652 79.643847 86.976048 78.48 85.5 78.125 C 83.947284 78.446198 82.665137 78.378 81.6875 76.6875 C 81.265779 74.777201 78.861386 74.99415 77.3125 74.96875 z M 22.84375 78.84375 C 21.897827 78.836846 20.989107 79.137 20.59375 80.5 C 19.527936 82.3596 18.460919 82.28935 17.21875 81.71875 C 15.942066 81.94705 14.697038 83.1335 14.375 85.1875 C 13.930272 86.8231 12.642255 87.62445 11.28125 88.40625 C 12.577082 88.575347 14.554921 89.1183 15.1875 86.9375 C 16.253299 85.077898 17.28908 85.14825 18.53125 85.71875 C 19.807919 85.490547 21.056806 84.304 21.375 82.25 C 21.823556 80.614399 23.107728 79.81315 24.46875 79.03125 C 23.982814 78.96785 23.411297 78.84785 22.84375 78.84375 z M 33.6875 86.59375 C 32.652374 88.360454 31.587579 90.00505 29.8125 90.09375 C 27.627209 89.848647 26.163496 91.2865 25.71875 93.125 C 26.105957 95.191701 26.014857 96.816 23.90625 97.75 C 21.538901 97.927401 21.756608 101.08185 21.71875 103.09375 C 22.753892 101.31865 23.818689 99.69095 25.59375 99.59375 C 27.779041 99.838847 29.242768 98.4052 29.6875 96.5625 C 29.300273 94.4958 29.391389 92.8758 31.5 91.9375 C 33.869312 91.760001 33.649156 88.59705 33.6875 86.59375 z M 67.1875 89.65625 C 68.939568 91.198851 70.542745 92.74075 70.53125 94.71875 C 70.144027 97.068549 71.51943 98.99755 73.375 99.90625 C 75.518105 99.952753 77.164219 100.43725 78 102.96875 C 78.034501 105.62295 81.269048 106.0638 83.3125 106.5625 C 81.568098 105.0199 79.988502 103.50495 80 101.53125 C 80.38722 99.172948 79.011836 97.24825 77.15625 96.34375 C 75.013127 96.301448 73.33194 95.81705 72.5 93.28125 C 72.461656 90.627154 69.238605 90.15495 67.1875 89.65625 z M 59.84375 103.53125 C 60.725537 107.02215 61.442685 110.3325 60.0625 112.75 C 58.007555 115.29 58.464721 118.8727 59.90625 121.6875 L 59.4375 121.78125 C 61.795319 123.78455 63.539181 125.84745 62.71875 129.71875 C 60.932183 133.00685 64.216328 136.49205 66.15625 138.96875 C 65.27063 135.48194 64.561157 132.1632 65.9375 129.75 C 67.988607 127.20989 67.531453 123.623 66.09375 120.8125 L 66.5625 120.71875 C 64.208523 118.71125 62.460807 116.65685 63.28125 112.78125 C 65.06782 109.49315 61.779844 106.01205 59.84375 103.53125 z M 33.5625 105.78125 C 33.363141 109.37365 33.02368 112.7905 30.96875 114.9375 C 28.231389 117.0929 27.615677 120.70115 28.15625 123.71875 L 27.65625 123.71875 C 29.316321 126.10245 30.392757 128.42105 28.4375 132.09375 C 25.726968 135.03535 27.821851 139.06705 28.9375 141.84375 C 29.136844 138.25134 29.476304 134.8303 31.53125 132.6875 C 34.268612 130.5279 34.884322 126.92815 34.34375 123.90625 L 34.84375 123.90625 C 33.183696 121.52265 32.107243 119.21235 34.0625 115.53125 C 36.77302 112.59395 34.678149 108.55375 33.5625 105.78125 z M 74.84375 112.09375 C 74.947276 113.82225 74.869316 116.5073 76.84375 116.875 C 78.622669 117.8809 78.643954 119.40655 78.40625 121.15625 L 78.65625 120.96875 C 79.097139 122.60015 80.225498 124.0752 82.03125 124.0625 C 83.507278 124.3076 84.451056 125.78335 85.375 127.40625 C 85.267659 125.67765 85.314342 122.9969 83.34375 122.625 C 81.560988 121.6234 81.535878 120.1205 81.78125 118.375 L 81.5625 118.5625 C 81.125438 116.9312 79.989407 115.46025 78.1875 115.46875 C 76.71147 115.22355 75.763881 113.71665 74.84375 112.09375 z M 46.625 120.09375 C 45.099135 123.50445 42.410202 128.42195 44.6875 132.03125 C 46.102198 136.54494 44.700281 139.3921 42.6875 142.3125 L 43.1875 142.34375 C 42.206038 146.04605 42.295775 150.44805 44.71875 153.09375 C 46.455484 155.72256 46.267203 159.93565 45.9375 164.34375 C 47.467208 160.93725 50.152296 156.01135 47.875 152.40625 C 46.460302 147.88835 47.893489 145.01835 49.90625 142.09375 L 49.40625 142.09375 C 50.383885 138.39146 50.297977 133.9582 47.875 131.3125 C 46.134422 128.6795 46.299138 124.50185 46.625 120.09375 z M 73.75 134.59375 C 74.079708 138.32985 74.236751 141.86225 72.5 144.09375 C 70.080853 146.33375 69.987271 150.07855 70.96875 153.21875 L 70.46875 153.25 C 72.473842 155.7224 73.891098 158.14395 72.46875 161.96875 C 70.191437 165.02445 72.915479 169.20715 74.4375 172.09375 C 74.111636 168.36195 73.919499 164.8025 75.65625 162.5625 C 78.0754 160.32679 78.172802 156.5819 77.1875 153.4375 L 77.6875 153.4375 C 75.674722 150.9651 74.241568 148.54355 75.65625 144.71875 C 77.937387 141.66316 75.275851 137.48025 73.75 134.59375 z M 21.0625 146.09375 C 21.388379 149.69035 21.576629 153.103 19.84375 155.25 C 17.420756 157.40959 17.295945 161.0407 18.28125 164.0625 L 17.8125 164.0625 C 19.821421 166.4503 21.231026 168.78335 19.8125 172.46875 C 17.53519 175.41446 20.224118 179.43785 21.75 182.21875 C 21.42412 178.61795 21.26328 175.218 23 173.0625 C 25.419166 170.9071 25.516541 167.2803 24.53125 164.25 L 25.03125 164.25 C 23.018491 161.8664 21.585315 159.52915 23 155.84375 C 25.281154 152.89805 22.584538 148.87045 21.0625 146.09375 z M 84.96875 149.3125 C 85.210274 154.07561 85.346839 158.56185 84.0625 161.40625 C 82.275925 164.26324 82.181668 169.0602 82.90625 173.0625 L 82.5625 173.0625 C 84.046199 176.21539 85.077887 179.28325 84.03125 184.15625 C 82.348177 188.04875 84.341587 193.3898 85.46875 197.0625 C 85.223378 192.3078 85.090647 187.7818 86.375 184.9375 C 88.161576 182.0847 88.228427 177.3106 87.5 173.3125 L 87.875 173.28125 C 86.387457 170.12835 85.328363 167.0605 86.375 162.1875 C 88.058075 158.29501 86.095908 152.9894 84.96875 149.3125 z M 50.90625 177.53125 C 51.235957 182.75075 51.424221 187.6892 49.6875 190.8125 C 47.264507 193.9442 47.139693 199.1756 48.125 203.5625 L 47.65625 203.59375 C 49.665168 207.05514 51.078618 210.43485 49.65625 215.78125 C 47.382784 220.05405 50.067868 225.9056 51.59375 229.9375 C 51.267874 224.71801 51.075764 219.7483 52.8125 216.625 C 55.235494 213.4933 55.352622 208.2619 54.375 203.875 L 54.84375 203.84375 C 52.83099 200.37815 51.429054 197.00255 52.84375 191.65625 C 55.121064 187.38346 52.432117 181.56315 50.90625 177.53125 z M 19.875 197.25 C 18.352977 200.031 15.660203 204.0584 17.9375 207 C 19.356025 210.68961 17.942594 213.02265 15.9375 215.40625 L 16.40625 215.40625 C 15.420946 218.43655 15.549599 222.06325 17.96875 224.21875 C 19.705498 226.37415 19.517206 229.7741 19.1875 233.375 C 20.717193 230.5898 23.402313 226.5665 21.125 223.625 C 19.710315 219.9396 21.11606 217.6379 23.125 215.25 L 22.65625 215.21875 C 23.637728 212.19695 23.516729 208.5972 21.09375 206.4375 C 19.357 204.2863 19.552965 200.8509 19.875 197.25 z M 80.5 204.59375 C 79.3767 208.27075 77.379443 213.57625 79.0625 217.46875 C 80.105325 222.34165 79.077447 225.43665 77.59375 228.59375 L 77.9375 228.59375 C 77.216742 232.59186 77.307178 237.36595 79.09375 240.21875 C 80.378099 243.05884 80.241529 247.58485 80 252.34375 C 81.127148 248.66685 83.120555 243.33 81.4375 239.4375 C 80.394705 234.5645 81.422556 231.49655 82.90625 228.34375 L 82.5625 228.34375 C 83.283256 224.34564 83.196663 219.5403 81.40625 216.6875 C 80.121895 213.83899 80.262315 209.35695 80.5 204.59375 z M 49.65625 235.90625 C 48.126526 238.68715 45.441442 242.71045 47.71875 245.65625 C 49.133433 249.34165 47.72767 251.6746 45.71875 254.0625 L 46.1875 254.0625 C 45.206039 257.0843 45.32701 260.7153 47.75 262.875 C 49.490562 265.02191 49.298471 268.43465 48.96875 272.03125 C 50.494632 269.25025 53.183562 265.22285 50.90625 262.28125 C 49.491554 258.59165 50.897315 256.2587 52.90625 253.875 L 52.4375 253.875 C 53.418964 250.8489 53.329245 247.2222 50.90625 245.0625 C 49.169529 242.9113 49.326527 239.50285 49.65625 235.90625 z M 19.53125 243.40625 C 19.860953 247.00705 20.053064 250.44255 18.3125 252.59375 C 15.889507 254.75344 15.768537 258.3489 16.75 261.375 L 16.28125 261.375 C 18.290186 263.75871 19.699774 266.10005 18.28125 269.78125 C 16.007781 272.73124 18.69671 276.75035 20.21875 279.53125 C 19.892869 275.93046 19.700765 272.522 21.4375 270.375 C 23.864319 268.21531 23.977633 264.5885 23 261.5625 L 23.46875 261.5625 C 21.455989 259.17459 20.054049 256.84155 21.46875 253.15625 C 23.749883 250.20625 21.060958 246.18715 19.53125 243.40625 z M 82.03125 274.53125 C 80.501545 277.31217 77.812613 281.3667 80.09375 284.3125 C 81.508434 287.9936 80.075261 290.2996 78.0625 292.6875 L 78.5625 292.71875 C 77.581016 295.74484 77.670755 299.3403 80.09375 301.5 C 81.830486 303.65121 81.669631 307.05535 81.34375 310.65625 C 82.865791 307.87525 85.558563 303.85205 83.28125 300.90625 C 81.862721 297.22096 83.272311 294.91495 85.28125 292.53125 L 84.78125 292.5 C 85.76654 289.46971 85.672993 285.87845 83.25 283.71875 C 81.509435 281.56755 81.701544 278.13205 82.03125 274.53125 z M 50.71875 286.3125 C 49.59161 288.3665 47.598193 291.35895 49.28125 293.53125 C 50.327887 296.25306 49.292371 297.95645 47.8125 299.71875 L 48.15625 299.71875 C 47.427824 301.95455 47.522087 304.61695 49.3125 306.21875 C 50.592992 307.80364 50.460279 310.3416 50.21875 313 C 51.345896 310.94599 53.308059 307.95775 51.625 305.78125 C 50.578364 303.05946 51.637476 301.35195 53.125 299.59375 L 52.75 299.59375 C 53.474596 297.35804 53.411571 294.69135 51.625 293.09375 C 50.340663 291.50465 50.473381 288.9709 50.71875 286.3125 z M 18.375 290.59375 C 17.244029 292.64774 15.254442 295.6317 16.9375 297.8125 C 17.984151 300.5301 16.921198 302.2377 15.4375 304 L 15.8125 304.03125 C 15.084091 306.26704 15.147086 308.93365 16.9375 310.53125 C 18.21801 312.12036 18.089104 314.62295 17.84375 317.28125 C 18.974722 315.22736 20.964309 312.27025 19.28125 310.09375 C 18.234598 307.37615 19.293711 305.6331 20.78125 303.875 L 20.40625 303.875 C 21.130831 301.6392 21.067835 298.9683 19.28125 297.375 C 17.996912 295.78589 18.129645 293.25215 18.375 290.59375 z "
     id="path3377" />
</svg>
